<?xml version="1.0" standalone="no"?>
<!DOCTYPE svg PUBLIC "-//W3C//DTD SVG 20010904//EN"
 "http://www.w3.org/TR/2001/REC-SVG-20010904/DTD/svg10.dtd">
<svg version="1.0" xmlns="http://www.w3.org/2000/svg"
 width="612.000000pt" height="612.000000pt" viewBox="0 0 612.000000 612.000000"
 preserveAspectRatio="xMidYMid meet">
<metadata>
Created by potrace 1.14, written by Peter Selinger 2001-2017
</metadata>
<g transform="translate(0.000000,612.000000) scale(0.100000,-0.100000)"
fill="#000000" stroke="none">
<path d="M2346 5693 c-3 -3 -6 -95 -6 -204 l0 -198 -37 -3 -38 -3 -2 -290 -2
-290 -30 -3 c-16 -2 -32 -10 -35 -18 -3 -9 -6 -413 -6 -899 0 -768 -2 -884
-15 -895 -22 -19 -22 -330 0 -330 12 0 15 16 17 78 1 42 1 92 -1 110 l-2 32
71 0 c57 0 70 3 70 16 0 13 -11 15 -57 14 -82 -3 -83 -3 -83 29 0 35 16 41
113 41 l67 0 0 -50 c0 -39 4 -52 20 -60 19 -10 20 -8 20 64 l0 75 -36 7 c-20
4 -63 4 -95 0 l-59 -6 0 66 0 66 43 -4 c32 -2 42 1 42 12 0 11 -11 15 -40 15
l-40 0 0 40 0 40 43 -2 c32 -2 42 1 42 12 0 11 -12 15 -45 15 l-45 0 0 70 0
69 95 -1 c97 -2 112 2 100 22 -5 8 -36 11 -99 9 l-91 -4 -3 48 -3 47 95 0 c82
0 96 2 96 16 0 14 -13 16 -92 13 l-93 -4 0 45 0 45 98 -4 c91 -3 99 -2 95 14
-3 16 -14 18 -100 17 l-98 -2 0 284 c0 167 4 287 9 291 6 3 53 8 105 12 l96 6
0 -255 0 -255 63 -6 c77 -7 117 -24 117 -49 0 -16 -9 -18 -70 -18 -56 0 -70
-3 -70 -15 0 -12 14 -15 70 -15 l70 0 0 -45 0 -45 -70 0 c-56 0 -70 -3 -70
-15 0 -12 14 -15 70 -15 l70 0 0 -50 0 -51 -73 7 c-63 5 -75 4 -80 -10 -7 -18
1 -19 96 -17 l57 2 0 -70 0 -70 -102 -3 c-70 -2 -103 -7 -106 -15 -3 -10 22
-13 102 -13 l106 0 0 -34 0 -35 -91 2 c-66 1 -93 -2 -96 -10 -4 -10 19 -13 91
-13 l96 0 0 -443 0 -444 25 -11 c14 -7 30 -12 35 -12 6 0 10 75 10 186 l0 185
23 -7 c40 -12 47 -25 47 -85 0 -59 0 -59 -30 -59 -20 0 -30 -5 -30 -15 0 -10
10 -15 30 -15 27 0 30 -3 30 -31 0 -27 -3 -30 -27 -27 -21 2 -29 -2 -31 -16
-4 -16 0 -18 27 -13 l31 7 0 -79 c0 -58 4 -82 15 -91 13 -11 15 13 15 204 l0
215 -32 18 c-18 9 -49 19 -68 22 l-35 6 -3 540 c-2 506 -3 540 -20 556 -10 9
-28 20 -40 23 l-22 7 0 424 c0 474 8 427 -75 440 l-40 6 3 342 c1 188 0 357
-3 375 -5 29 -9 32 -40 32 l-35 0 0 199 c0 181 -5 223 -24 204z m64 -467 l0
-36 -55 0 c-54 0 -55 1 -55 28 0 16 2 31 4 33 2 2 27 5 55 7 l51 3 0 -35z m0
-386 l0 -320 28 -5 c61 -13 83 -20 83 -27 -1 -5 -1 -188 -1 -409 l0 -400 -22
3 -23 3 -3 247 c-3 279 7 253 -92 263 -31 3 -77 1 -103 -4 l-47 -8 0 243 c0
234 1 244 19 244 52 0 51 -5 51 251 l0 238 48 3 c26 2 50 2 55 0 4 -2 7 -147
7 -322z"/>
<path d="M2334 4355 c0 -49 1 -71 3 -48 2 23 2 64 0 90 -2 26 -3 8 -3 -42z"/>
<path d="M3268 5214 c-11 -17 6 -97 21 -102 9 -3 11 0 6 7 -4 7 -10 33 -14 59
-3 26 -10 42 -13 36z"/>
<path d="M3390 5171 c0 -10 -2 -34 -5 -52 -4 -25 -3 -29 3 -14 17 37 24 85 13
85 -6 0 -11 -8 -11 -19z"/>
<path d="M3320 5159 c0 -8 9 -22 20 -32 11 -9 20 -14 20 -11 0 3 -9 17 -20 31
-12 15 -20 20 -20 12z"/>
<path d="M3417 5139 c8 -8 8 -20 3 -35 -5 -13 -6 -24 -1 -24 11 0 24 48 16 60
-4 6 -11 10 -18 10 -8 0 -8 -3 0 -11z"/>
<path d="M3460 5129 c0 -5 5 -7 10 -4 6 3 10 8 10 11 0 2 -4 4 -10 4 -5 0 -10
-5 -10 -11z"/>
<path d="M3490 5117 c0 -15 0 -30 -1 -34 0 -4 3 -9 8 -10 9 -3 9 54 0 64 -4 3
-7 -6 -7 -20z"/>
<path d="M3537 5107 c-4 -10 -7 -26 -7 -35 1 -15 2 -15 11 1 6 10 9 25 7 35
-3 16 -4 15 -11 -1z"/>
<path d="M3457 5103 c-10 -9 -9 -23 1 -23 5 0 9 7 9 15 0 17 -1 18 -10 8z"/>
<path d="M3614 5084 c-4 -14 -3 -29 2 -34 5 -5 10 6 11 26 3 40 -4 45 -13 8z"/>
<path d="M3692 5063 c2 -20 9 -38 16 -39 7 -1 8 0 2 3 -16 8 -12 43 6 50 13 5
13 7 2 14 -24 15 -29 10 -26 -28z"/>
<path d="M3587 5073 c-10 -9 -9 -23 1 -23 5 0 9 7 9 15 0 17 -1 18 -10 8z"/>
<path d="M3746 5058 c-8 -33 -7 -40 4 -33 6 3 10 15 10 27 0 14 5 18 15 14 8
-3 15 -1 15 4 0 21 -38 9 -44 -12z"/>
<path d="M3826 5044 c-4 -15 -2 -32 3 -37 8 -8 11 0 11 26 0 44 -5 47 -14 11z"/>
<path d="M4016 5034 c-4 -19 -10 -42 -13 -50 -3 -8 -1 -14 5 -14 5 0 14 23 19
50 6 28 7 50 3 50 -4 0 -11 -16 -14 -36z"/>
<path d="M3873 5036 c4 -10 7 -24 7 -32 0 -8 4 -14 9 -14 11 0 1 49 -12 57 -7
4 -8 0 -4 -11z"/>
<path d="M3797 5033 c-10 -9 -9 -23 1 -23 5 0 9 7 9 15 0 17 -1 18 -10 8z"/>
<path d="M3928 5016 c6 -26 21 -46 34 -46 5 0 2 8 -8 18 -17 16 -17 17 2 20
27 5 38 18 23 27 -8 5 -10 4 -5 -3 4 -7 1 -12 -8 -12 -9 0 -16 4 -16 8 0 5 -6
9 -14 9 -8 0 -11 -8 -8 -21z"/>
<path d="M4079 4994 c-16 -19 -1 -47 27 -52 19 -4 19 -3 0 11 -13 9 -17 21
-13 36 6 25 4 26 -14 5z"/>
<path d="M4147 4993 c-9 -9 -9 -53 1 -53 4 0 7 14 8 30 1 32 1 33 -9 23z"/>
<path d="M4187 4981 c3 -11 -1 -29 -8 -38 -12 -14 -12 -16 1 -11 18 6 26 46
11 61 -7 7 -8 3 -4 -12z"/>
<path d="M4227 4958 c-9 -33 -8 -40 3 -33 6 3 10 15 10 26 0 10 4 19 9 19 17
0 22 -19 10 -41 -9 -17 -8 -20 3 -17 7 3 14 14 16 26 2 12 10 22 18 22 17 0
17 -1 4 -34 -6 -17 -6 -26 0 -26 13 0 25 50 14 60 -5 5 -25 11 -45 15 -32 6
-37 4 -42 -17z"/>
<path d="M3770 4386 l0 -164 -32 -21 c-89 -57 -88 -55 -88 -206 0 -74 -4 -135
-8 -135 -4 0 -23 -16 -42 -35 -19 -19 -66 -61 -105 -92 -38 -31 -80 -66 -92
-78 -11 -12 -43 -40 -70 -61 -26 -21 -84 -71 -128 -110 -44 -39 -90 -77 -102
-85 -12 -8 -44 -36 -72 -62 l-51 -48 -1 -474 c0 -413 -2 -477 -16 -490 -8 -9
-17 -35 -20 -58 -4 -38 -3 -40 10 -24 8 9 19 17 25 17 6 0 16 9 22 19 5 11 25
29 44 41 l35 21 48 -25 c29 -15 58 -40 72 -63 13 -21 26 -33 28 -26 2 6 -3 23
-13 37 -10 16 -12 26 -5 26 6 0 11 -5 11 -11 0 -5 5 -7 10 -4 6 3 10 1 10 -4
0 -7 64 -11 194 -11 177 0 195 -2 199 -17 4 -17 5 -17 6 0 1 14 10 17 51 17
l50 0 0 -65 0 -65 -258 0 -259 0 -1 -41 c-3 -70 -8 -69 269 -69 l249 0 0 -65
0 -65 -185 0 c-164 0 -185 2 -194 17 -5 10 -13 15 -17 11 -3 -4 -15 -3 -25 3
-22 11 -119 -30 -199 -85 -25 -17 -47 -29 -50 -28 -3 1 -5 31 -6 67 -1 37 -6
71 -12 77 -7 7 -12 22 -12 34 0 13 -4 25 -9 28 -9 6 -6 -361 4 -530 7 -113 19
-131 78 -119 39 9 97 51 97 70 0 8 8 18 17 24 14 7 20 4 30 -21 7 -16 22 -32
33 -35 11 -3 17 -9 15 -14 -9 -13 34 -30 68 -27 21 2 33 9 35 20 3 15 -4 18
-47 18 -30 0 -55 6 -64 15 -24 24 -55 78 -63 110 -3 17 -17 44 -30 62 -13 17
-24 35 -24 40 0 4 -16 39 -35 77 -19 39 -35 75 -35 81 0 26 154 115 200 115 9
0 24 -8 31 -17 12 -15 12 -16 -8 -11 -16 4 -20 2 -16 -8 3 -8 0 -14 -7 -14 -6
0 -8 -5 -5 -10 9 -15 55 -12 61 4 8 22 33 8 27 -15 -3 -10 0 -19 6 -19 6 0 11
-7 11 -15 0 -12 19 -15 113 -15 101 1 110 2 93 15 -19 15 -19 15 2 15 13 0 22
-6 22 -15 0 -11 12 -15 50 -15 l50 0 0 -65 0 -65 -147 0 c-82 0 -142 -4 -135
-8 7 -5 10 -16 7 -24 -4 -9 -2 -19 4 -23 6 -3 11 -19 11 -35 l0 -28 130 1 130
2 0 -28 0 -27 40 26 c33 22 40 32 40 60 0 18 -10 53 -21 77 -27 56 -20 122 17
167 21 24 34 30 66 30 21 0 48 -5 59 -10 26 -15 49 -62 49 -105 0 -22 4 -34
10 -30 16 10 12 -2 -20 -58 -34 -60 -37 -72 -15 -63 13 5 13 2 -1 -19 -21 -32
-13 -76 23 -130 15 -22 32 -51 39 -64 l13 -25 12 30 c7 16 13 59 13 96 l1 68
153 0 c126 0 154 -3 158 -15 9 -21 24 -19 24 4 0 11 12 33 26 50 24 29 31 31
90 31 l64 0 29 -51 c29 -51 54 -53 29 -2 -39 82 -163 97 -237 30 l-24 -22 7
38 7 37 -176 0 -175 0 0 56 0 55 242 -3 c182 -2 242 -6 246 -15 2 -7 15 -13
28 -13 l24 0 -2 473 -3 472 -290 -4 c-159 -2 -287 0 -283 4 4 4 77 7 162 6 99
-2 163 2 176 9 20 10 20 18 18 153 l-3 142 -177 3 -178 2 0 30 0 30 88 0 c73
0 92 3 105 18 22 24 21 35 -1 55 -14 13 -39 17 -105 17 l-87 0 0 131 0 131 63
-54 c34 -30 182 -157 330 -282 l267 -228 1 -657 c1 -361 0 -713 -1 -783 l-2
-126 34 -16 c56 -27 88 -60 88 -92 0 -28 38 -334 59 -479 14 -91 14 -95 -3
-95 -26 0 -30 -22 -36 -170 -5 -143 -5 -145 -27 -142 -13 2 -23 -1 -23 -7 0
-5 10 -11 23 -13 18 -2 23 -10 25 -45 3 -47 -7 -56 -23 -21 -15 32 -35 35 -35
4 0 -22 -5 -26 -29 -26 -36 0 -50 -17 -49 -60 0 -19 -2 -44 -6 -56 -7 -20 -4
-21 121 -27 165 -9 1226 -9 1287 -1 l46 7 0 238 c0 206 -2 239 -15 239 -8 0
-15 9 -15 20 0 12 -7 20 -16 20 -9 0 -18 -9 -21 -20 -8 -29 -31 -24 -35 8 -2
22 -8 28 -35 30 -24 2 -33 8 -33 22 0 10 -3 25 -6 34 -5 13 -1 15 23 10 20 -4
33 -1 42 10 20 24 4 36 -49 36 -38 0 -50 4 -53 17 -4 17 -5 17 -6 1 -2 -40
-31 -10 -31 32 0 16 9 19 63 22 55 3 62 5 65 25 3 21 -1 22 -65 25 l-68 3 -3
33 -3 32 53 0 c60 0 84 11 75 34 -5 12 -21 16 -72 16 -45 0 -65 4 -65 13 0 6
-3 22 -6 35 -6 21 -3 22 48 22 56 0 80 12 71 36 -4 10 -24 14 -68 14 -65 0
-75 6 -75 51 0 16 7 19 53 19 64 0 87 11 68 34 -10 11 -31 16 -71 16 -51 0
-58 2 -64 23 -11 40 -7 44 40 45 105 2 113 34 12 42 -37 3 -68 7 -71 10 -2 3
-7 19 -10 37 l-6 32 52 -1 c57 -2 77 5 77 28 0 11 -15 14 -64 14 -70 0 -70 0
-81 48 l-7 32 61 0 c54 0 61 2 61 20 0 18 -7 20 -64 20 -70 0 -70 0 -81 47
l-6 32 63 3 c48 2 63 7 63 18 0 12 -15 16 -67 18 -67 3 -68 3 -76 35 -5 18 -8
34 -6 35 1 2 26 6 55 8 97 6 93 44 -5 44 -58 0 -64 2 -70 22 -14 53 -10 58 47
58 58 0 68 4 60 26 -4 10 -23 14 -69 14 -44 0 -64 4 -66 13 0 6 -2 17 -2 22
-1 6 -5 15 -9 21 -9 16 15 24 56 19 35 -5 79 17 64 31 -4 4 -35 10 -70 12 -69
5 -72 6 -81 45 -6 27 -6 27 49 27 42 0 57 4 62 16 9 24 -15 34 -79 34 -40 0
-58 4 -58 13 0 6 -3 22 -6 35 -6 21 -3 22 45 22 38 0 53 4 58 16 9 24 -16 35
-72 32 -44 -2 -51 1 -62 22 -21 42 -16 49 39 52 40 2 54 7 56 20 3 14 -7 18
-63 20 l-67 3 -30 78 c-28 69 -34 77 -57 77 -20 0 -36 12 -65 50 -30 40 -44
50 -67 50 -35 0 -35 2 -4 36 55 59 35 151 -40 187 -40 19 -52 21 -100 14 -44
-7 -95 -68 -95 -114 0 -39 31 -103 50 -103 5 0 10 -4 10 -10 0 -5 -13 -10 -28
-10 -22 0 -39 -12 -71 -51 -31 -36 -49 -49 -65 -47 -19 3 -21 9 -21 78 l0 75
-48 3 -47 3 0 -618 c0 -340 0 -662 0 -715 0 -64 -4 -98 -11 -98 -24 0 -69 42
-69 65 0 13 -4 27 -10 30 -6 4 -10 -7 -10 -24 0 -21 -5 -31 -15 -31 -14 0 -16
19 -15 128 1 70 1 425 1 789 l-1 661 -89 79 c-102 90 -235 203 -331 283 -37
30 -80 67 -96 82 -16 15 -38 34 -49 42 -18 13 -19 24 -17 113 2 54 -1 110 -7
125 -5 14 -30 40 -55 58 l-46 31 0 140 c0 108 -3 140 -12 137 -10 -4 -14 -112
-16 -486 l-2 -482 180 0 c119 0 180 -4 180 -11 0 -7 -48 -9 -145 -7 -109 2
-145 0 -145 -9 0 -9 40 -13 148 -16 l147 -3 -147 -2 c-88 -1 -148 -6 -148 -12
0 -5 61 -11 148 -13 l147 -3 -147 -2 c-88 -1 -148 -6 -148 -12 0 -5 61 -11
148 -13 l147 -3 -147 -2 c-88 -1 -148 -6 -148 -12 0 -5 61 -11 148 -13 l147
-3 -147 -2 c-88 -1 -148 -6 -148 -12 0 -5 61 -11 148 -13 l147 -3 -147 -2
c-91 -1 -148 -6 -148 -12 0 -6 56 -10 147 -10 80 0 143 -3 140 -7 -4 -3 -67
-7 -139 -8 -73 -1 -137 -3 -143 -6 -5 -2 58 -6 140 -9 l150 -6 -147 -2 c-91
-1 -148 -6 -148 -12 0 -6 55 -10 145 -10 80 0 145 -3 145 -7 0 -5 -81 -7 -180
-7 l-180 2 0 -383 c0 -328 2 -384 15 -395 10 -8 15 -30 15 -63 l0 -51 -27 26
c-16 14 -38 29 -50 32 -33 10 -102 -12 -130 -42 l-25 -27 6 32 c3 18 9 46 12
62 3 16 12 35 20 42 12 10 14 101 14 599 l0 588 -32 5 c-18 4 -114 6 -213 7
-98 0 -181 3 -184 5 -2 3 73 5 167 5 100 0 173 4 177 10 9 15 -30 20 -190 23
l-150 3 173 2 c112 1 171 6 167 12 -4 6 -74 10 -177 10 -94 0 -169 3 -165 6 3
3 77 6 164 6 161 1 187 3 177 19 -3 5 -83 10 -177 11 l-172 2 180 6 c120 4
172 9 156 15 -25 8 -25 8 -3 16 56 21 16 29 -155 31 l-178 2 171 3 172 3 4 30
5 30 -176 2 -176 2 169 6 c123 4 171 8 174 18 3 9 -35 12 -168 12 -111 0 -169
3 -165 10 4 6 87 10 216 10 l209 0 0 560 0 560 -25 0 -25 0 0 -164z m13 -608
l-2 -152 -105 -1 c-111 -1 -136 -10 -136 -49 0 -45 13 -51 132 -56 l113 -5 0
-30 0 -30 -205 -3 c-112 -1 -207 -6 -210 -11 -4 -7 -5 -299 -1 -333 1 -5 93
-8 206 -8 138 0 205 -3 205 -11 0 -7 -103 -9 -332 -8 l-333 3 -5 -329 c-5
-320 -6 -330 -25 -334 -11 -2 -32 -12 -47 -23 l-28 -19 0 450 0 449 193 165
c105 90 277 237 381 326 104 88 191 161 195 161 3 0 5 -68 4 -152z m-73 -438
c-19 -12 -309 -10 -316 1 -3 5 70 9 163 9 110 0 163 -4 153 -10z m-70 -70 c0
-6 -47 -10 -120 -10 -73 0 -120 4 -120 10 0 6 47 10 120 10 73 0 120 -4 120
-10z m100 -340 l0 -70 -272 2 -273 3 -3 68 -3 67 276 0 275 0 0 -70z m1494
-155 c72 -47 45 -155 -42 -171 -96 -18 -159 90 -93 157 23 23 38 29 71 29 22
0 51 -7 64 -15z m-1494 -90 l0 -65 -50 0 c-43 0 -50 -3 -50 -20 0 -11 -6 -20
-14 -20 -8 0 -17 -6 -19 -12 -4 -8 -6 -7 -6 3 -1 9 7 20 16 23 44 17 -20 26
-212 28 l-210 3 -3 49 c-2 27 -1 55 2 62 4 11 55 14 276 14 l270 0 0 -65z
m1140 -215 c0 -77 0 -143 1 -147 0 -4 -4 -9 -10 -11 -8 -3 -11 44 -11 147 0
94 4 151 10 151 6 0 10 -53 10 -140z m-390 49 l0 -49 -225 0 -225 0 0 50 0 50
218 2 c119 2 220 2 225 0 4 -2 7 -25 7 -53z m-750 -74 l0 -65 -275 0 -275 0 0
58 c0 32 3 62 7 65 3 4 127 7 275 7 l268 0 0 -65z m1694 -46 c14 -33 26 -62
26 -65 0 -2 -117 -4 -260 -4 l-260 0 0 58 c0 32 3 62 7 65 3 4 108 7 233 7
l227 0 27 -61z m-944 -84 l0 -55 -225 0 -225 0 0 55 0 55 225 0 225 0 0 -55z
m400 -75 c0 -38 -4 -50 -15 -50 -11 0 -15 12 -15 50 0 38 4 50 15 50 11 0 15
-12 15 -50z m587 32 c6 -4 15 -20 18 -35 l7 -27 -281 0 -281 0 0 28 c0 16 3
32 7 35 9 10 515 8 530 -1z m-987 -167 l0 -55 -225 0 -225 0 0 55 0 55 225 0
225 0 0 -55z m408 13 c-2 -30 -8 -43 -18 -43 -10 0 -16 13 -18 43 -3 37 -1 42
18 42 19 0 21 -5 18 -42z m625 35 c2 -5 7 -20 11 -35 l6 -28 -300 0 -300 0 0
28 c0 16 3 32 7 35 9 10 571 9 576 0z m-630 -100 c3 -5 8 -27 12 -50 6 -41 6
-43 -19 -43 -24 0 -26 3 -26 43 0 24 3 47 7 50 9 9 21 9 26 0z m667 -32 c28
-53 35 -51 -302 -49 l-313 3 -3 33 -3 32 305 0 c292 0 306 -1 316 -19z m-1070
-126 l0 -55 -225 0 -225 0 0 55 0 55 225 0 225 0 0 -55z m424 23 c3 -13 6 -35
6 -50 0 -24 -4 -28 -30 -28 -29 0 -30 1 -30 50 0 46 2 50 24 50 16 0 26 -7 30
-22z m685 -28 c8 -23 7 -32 -2 -36 -7 -2 -154 -3 -327 -2 l-315 3 -3 33 -3 32
319 0 320 0 11 -30z m-676 -77 c3 -5 8 -27 12 -50 l7 -43 -41 0 -41 0 0 50 c0
49 1 50 29 50 17 0 32 -3 34 -7z m702 -25 c2 -7 5 -22 7 -33 3 -20 -3 -20
-321 -23 -179 -1 -328 1 -332 5 -3 5 -9 20 -13 36 l-6 27 330 0 c256 0 332 -3
335 -12z m-2535 -49 c0 -4 12 -25 26 -46 33 -49 80 -149 87 -189 5 -24 0 -36
-24 -62 -30 -32 -93 -52 -110 -35 -10 10 -15 133 -11 277 2 77 4 87 17 76 8
-7 15 -16 15 -21z m1855 -66 c17 -79 20 -73 -35 -73 l-50 0 0 50 0 50 40 0
c35 0 40 -3 45 -27z m710 -5 c17 -51 37 -48 -324 -48 -184 0 -335 1 -337 2 -1
2 -5 15 -9 31 l-7 27 336 0 c260 0 338 -3 341 -12z m-686 -125 c18 -62 17 -63
-49 -63 l-60 0 0 50 0 50 50 0 c48 0 49 -1 59 -37z m715 1 c20 -51 33 -49
-334 -46 -187 1 -340 6 -340 10 0 4 -3 17 -6 30 l-6 22 340 0 c301 0 341 -2
346 -16z m-687 -126 l9 -43 -66 -5 c-36 -3 -68 -4 -72 -2 -5 2 -8 23 -8 48 l0
44 64 0 65 0 8 -42z m708 20 c1 -2 5 -15 9 -30 l6 -28 -339 0 c-363 0 -351 -2
-351 48 0 16 28 17 336 15 185 -1 338 -3 339 -5z m-686 -110 c5 -13 12 -38 16
-55 l7 -33 -91 0 -91 0 0 55 0 55 75 0 c69 0 76 -2 84 -22z m715 -21 c13 -49
26 -47 -327 -47 l-333 0 -11 29 c-6 17 -8 32 -5 36 3 3 155 5 338 4 331 -1
332 -1 338 -22z m-681 -104 c38 -75 41 -73 -82 -73 l-111 0 0 50 0 50 90 0
c88 0 90 -1 103 -27z m705 -30 l3 -33 -324 0 -325 0 -11 31 c-6 18 -11 34 -11
36 0 2 150 2 333 1 l332 -3 3 -32z m-651 -113 l21 -50 -134 0 -134 0 0 50 0
50 113 0 113 0 21 -50z m226 23 c4 -3 1 -13 -7 -22 -8 -9 -15 -20 -15 -26 -1
-5 -34 -11 -75 -13 -74 -3 -75 -3 -91 27 -8 17 -15 32 -15 36 0 7 195 6 203
-2z m147 -1 c0 -4 -6 -14 -12 -20 -7 -7 -13 -18 -13 -25 0 -7 -17 -13 -37 -15
-32 -3 -38 0 -38 16 0 11 -7 23 -16 26 -8 3 -12 10 -9 16 7 12 125 14 125 2z
m295 -4 c18 -54 20 -53 -122 -56 -126 -2 -133 -1 -133 17 0 10 -7 22 -16 25
-8 3 -12 10 -9 16 10 16 275 13 280 -2z m-612 -145 l28 -53 -165 0 -166 0 0
53 0 52 138 0 137 0 28 -52z m197 12 l0 -45 61 0 61 0 -3 42 c-2 26 1 43 9 46
8 2 12 -10 12 -41 0 -31 5 -47 15 -51 8 -3 15 -15 15 -26 0 -11 7 -20 15 -20
12 0 15 -19 15 -115 l0 -115 45 0 45 0 0 44 c0 28 5 46 14 49 21 8 26 -2 26
-49 0 -33 4 -43 20 -47 17 -4 20 -14 20 -57 l0 -51 68 3 c63 3 67 4 70 28 2
14 9 31 15 38 8 11 13 10 21 -5 6 -10 11 -27 11 -38 0 -15 8 -21 33 -23 26 -3
32 -8 32 -27 0 -21 5 -24 48 -27 l47 -3 3 -157 3 -158 -78 0 -78 0 0 166 c0
145 -2 168 -17 177 -12 8 -21 7 -32 -2 -13 -11 -16 -40 -16 -177 l0 -164 -77
0 -78 0 2 197 c2 131 -1 201 -8 210 -13 15 -45 18 -53 4 -3 -4 -6 -99 -6 -210
l-1 -201 -57 0 -57 0 3 348 c2 329 1 350 -16 366 -23 20 -50 12 -57 -18 -3
-11 -4 -173 -3 -359 l3 -337 -37 0 -38 0 0 354 c0 381 -1 392 -50 366 -20 -11
-20 -15 -18 -365 l3 -355 -228 0 -227 0 0 355 1 355 222 2 c211 3 222 4 222
22 0 10 7 22 15 25 10 4 15 19 14 41 -1 39 3 50 17 50 5 0 9 -20 9 -45z m-60
5 c0 -11 -7 -20 -15 -20 -8 0 -15 -7 -15 -16 0 -29 -52 -12 -73 24 l-19 32 61
0 c54 0 61 -2 61 -20z m140 0 c0 -15 -7 -20 -25 -20 -18 0 -25 5 -25 20 0 15
7 20 25 20 18 0 25 -5 25 -20z m362 -10 c3 -17 2 -32 0 -35 -3 -3 -56 -5 -119
-5 -100 0 -115 2 -133 20 -11 11 -20 27 -20 35 0 13 22 15 134 15 l134 0 4
-30z m16 -128 l3 -33 -68 3 c-62 3 -68 5 -71 26 -2 12 -7 22 -12 22 -5 0 -10
-10 -12 -22 -2 -17 -11 -24 -30 -26 -26 -3 -28 -1 -28 33 l0 36 108 -3 107 -3
3 -33z m-200 -114 c-4 -41 -22 -39 -24 2 -1 20 3 30 13 30 10 0 13 -9 11 -32z
m215 5 c3 -16 4 -30 2 -33 -2 -3 -26 -3 -54 -2 -49 4 -51 5 -51 33 0 28 2 29
49 29 45 0 49 -2 54 -27z m7 -121 c0 -37 -3 -39 -45 -34 -31 4 -35 7 -35 33 0
27 3 29 40 29 37 0 40 -2 40 -28z m-920 -481 c-5 -11 -10 -29 -10 -40 0 -16
-6 -21 -25 -21 -22 0 -25 4 -25 40 0 39 1 40 35 40 32 0 35 -2 25 -19z m136
-3 c-9 -12 -16 -30 -16 -40 0 -13 -8 -18 -30 -18 -25 0 -30 4 -30 24 0 14 -4
28 -10 31 -24 15 -6 25 46 25 55 0 55 0 40 -22z m144 13 c0 -6 -4 -13 -10 -16
-5 -3 -10 -17 -10 -31 0 -20 -5 -24 -29 -24 -22 0 -30 5 -34 23 -2 12 -8 30
-12 40 -6 15 -1 17 44 17 28 0 51 -4 51 -9z m124 -16 c-9 -14 -14 -32 -10 -40
4 -12 -3 -15 -29 -15 -29 0 -35 4 -35 21 0 11 -5 29 -10 40 -10 18 -7 19 45
19 l55 0 -16 -25z m146 16 c0 -6 -4 -13 -10 -16 -5 -3 -10 -17 -10 -31 0 -20
-5 -24 -30 -24 -25 0 -30 4 -30 24 0 14 -4 28 -10 31 -23 14 -7 25 40 25 28 0
50 -4 50 -9z m128 -13 c-7 -13 -11 -31 -9 -40 2 -14 -5 -18 -28 -18 -23 0 -31
5 -31 18 0 10 -7 28 -16 40 -15 22 -15 22 41 22 55 0 55 0 43 -22z m138 0 c-9
-12 -16 -30 -16 -40 0 -13 -8 -18 -30 -18 -25 0 -30 4 -30 24 0 14 -4 28 -10
31 -24 15 -6 25 46 25 55 0 55 0 40 -22z m144 13 c0 -6 -4 -13 -10 -16 -5 -3
-10 -17 -10 -31 0 -20 -5 -24 -30 -24 -22 0 -30 5 -30 18 0 10 -7 28 -16 40
-15 22 -15 22 40 22 31 0 56 -4 56 -9z m126 -13 c-9 -12 -16 -30 -16 -40 0
-13 -8 -18 -31 -18 -23 0 -30 4 -28 18 2 9 -2 27 -9 40 -12 22 -12 22 43 22
56 0 56 0 41 -22z m74 -20 l-1 -43 -14 40 c-18 49 -18 45 0 45 11 0 15 -11 15
-42z"/>
<path d="M3151 3311 c-8 -5 -11 -35 -9 -97 3 -81 5 -89 23 -89 18 0 20 8 23
91 2 71 0 93 -11 97 -8 3 -19 2 -26 -2z"/>
<path d="M3262 3308 c-18 -18 -16 -162 3 -178 8 -7 22 -10 30 -6 12 4 15 24
15 89 0 75 -9 107 -30 107 -3 0 -11 -5 -18 -12z"/>
<path d="M4890 805 c0 -16 6 -25 15 -25 9 0 15 9 15 25 0 16 -6 25 -15 25 -9
0 -15 -9 -15 -25z"/>
<path d="M4950 805 c0 -14 5 -25 10 -25 6 0 10 11 10 25 0 14 -4 25 -10 25 -5
0 -10 -11 -10 -25z"/>
<path d="M4994 815 c-3 -8 -3 -19 1 -25 11 -18 25 -11 25 15 0 27 -17 34 -26
10z"/>
<path d="M5044 815 c-3 -8 -3 -19 1 -25 11 -18 25 -11 25 15 0 27 -17 34 -26
10z"/>
<path d="M5097 823 c-7 -15 -2 -36 11 -40 7 -3 12 5 12 21 0 24 -14 36 -23 19z"/>
<path d="M5147 823 c-13 -12 -7 -43 8 -43 9 0 15 9 15 25 0 24 -10 32 -23 18z"/>
<path d="M5194 815 c-3 -8 -3 -19 1 -25 11 -18 25 -11 25 15 0 27 -17 34 -26
10z"/>
<path d="M5240 805 c0 -16 6 -25 15 -25 9 0 15 9 15 25 0 16 -6 25 -15 25 -9
0 -15 -9 -15 -25z"/>
<path d="M5230 760 c0 -5 7 -10 15 -10 8 0 15 5 15 10 0 6 -7 10 -15 10 -8 0
-15 -4 -15 -10z"/>
<path d="M4908 753 c6 -2 18 -2 25 0 6 3 1 5 -13 5 -14 0 -19 -2 -12 -5z"/>
<path d="M4983 753 c9 -2 23 -2 30 0 6 3 -1 5 -18 5 -16 0 -22 -2 -12 -5z"/>
<path d="M5058 753 c6 -2 18 -2 25 0 6 3 1 5 -13 5 -14 0 -19 -2 -12 -5z"/>
<path d="M5178 753 c6 -2 18 -2 25 0 6 3 1 5 -13 5 -14 0 -19 -2 -12 -5z"/>
<path d="M4890 705 c0 -16 6 -25 15 -25 9 0 15 9 15 25 0 16 -6 25 -15 25 -9
0 -15 -9 -15 -25z"/>
<path d="M4950 705 c0 -14 5 -25 10 -25 6 0 10 11 10 25 0 14 -4 25 -10 25 -5
0 -10 -11 -10 -25z"/>
<path d="M5000 705 c0 -14 5 -25 10 -25 6 0 10 11 10 25 0 14 -4 25 -10 25 -5
0 -10 -11 -10 -25z"/>
<path d="M5044 715 c-3 -8 -3 -19 1 -25 11 -18 25 -11 25 15 0 27 -17 34 -26
10z"/>
<path d="M5097 723 c-7 -15 -2 -36 11 -40 7 -3 12 5 12 21 0 24 -14 36 -23 19z"/>
<path d="M5147 723 c-13 -12 -7 -43 8 -43 9 0 15 9 15 25 0 24 -10 32 -23 18z"/>
<path d="M5190 705 c0 -16 6 -25 15 -25 9 0 15 9 15 25 0 16 -6 25 -15 25 -9
0 -15 -9 -15 -25z"/>
<path d="M5247 723 c-13 -12 -7 -43 8 -43 9 0 15 9 15 25 0 24 -10 32 -23 18z"/>
<path d="M4890 605 c0 -16 6 -25 15 -25 9 0 15 9 15 25 0 16 -6 25 -15 25 -9
0 -15 -9 -15 -25z"/>
<path d="M4944 615 c-3 -8 -3 -19 1 -25 11 -18 25 -11 25 15 0 27 -17 34 -26
10z"/>
<path d="M4994 615 c-3 -8 -3 -19 1 -25 11 -18 25 -11 25 15 0 27 -17 34 -26
10z"/>
<path d="M5042 608 c5 -32 28 -35 28 -4 0 17 -5 26 -16 26 -10 0 -14 -7 -12
-22z"/>
<path d="M5092 608 c5 -32 28 -35 28 -4 0 17 -5 26 -16 26 -10 0 -14 -7 -12
-22z"/>
<path d="M5142 608 c5 -32 28 -35 28 -4 0 17 -5 26 -16 26 -10 0 -14 -7 -12
-22z"/>
<path d="M5190 605 c0 -16 6 -25 15 -25 9 0 15 9 15 25 0 16 -6 25 -15 25 -9
0 -15 -9 -15 -25z"/>
<path d="M5240 605 c0 -16 6 -25 15 -25 9 0 15 9 15 25 0 16 -6 25 -15 25 -9
0 -15 -9 -15 -25z"/>
<path d="M4890 505 c0 -16 6 -25 15 -25 9 0 15 9 15 25 0 16 -6 25 -15 25 -9
0 -15 -9 -15 -25z"/>
<path d="M4942 508 c5 -32 28 -35 28 -4 0 17 -5 26 -16 26 -10 0 -14 -7 -12
-22z"/>
<path d="M4992 508 c5 -32 28 -35 28 -4 0 17 -5 26 -16 26 -10 0 -14 -7 -12
-22z"/>
<path d="M5042 508 c5 -32 28 -35 28 -4 0 17 -5 26 -16 26 -10 0 -14 -7 -12
-22z"/>
<path d="M5092 508 c5 -32 28 -35 28 -4 0 17 -5 26 -16 26 -10 0 -14 -7 -12
-22z"/>
<path d="M5142 508 c5 -32 28 -35 28 -4 0 17 -5 26 -16 26 -10 0 -14 -7 -12
-22z"/>
<path d="M5192 508 c5 -32 28 -35 28 -4 0 17 -5 26 -16 26 -10 0 -14 -7 -12
-22z"/>
<path d="M5242 508 c5 -32 28 -35 28 -4 0 17 -5 26 -16 26 -10 0 -14 -7 -12
-22z"/>
<path d="M4890 415 c0 -16 6 -25 15 -25 9 0 15 9 15 25 0 16 -6 25 -15 25 -9
0 -15 -9 -15 -25z"/>
<path d="M4947 433 c-13 -12 -7 -43 8 -43 9 0 15 9 15 25 0 24 -10 32 -23 18z"/>
<path d="M4994 425 c-3 -8 -3 -19 1 -25 11 -18 25 -11 25 15 0 27 -17 34 -26
10z"/>
<path d="M5047 433 c-13 -12 -7 -43 8 -43 9 0 15 9 15 25 0 24 -10 32 -23 18z"/>
<path d="M5097 433 c-13 -12 -7 -43 8 -43 9 0 15 9 15 25 0 24 -10 32 -23 18z"/>
<path d="M5147 433 c-13 -12 -7 -43 8 -43 9 0 15 9 15 25 0 24 -10 32 -23 18z"/>
<path d="M5197 433 c-13 -12 -7 -43 8 -43 9 0 15 9 15 25 0 24 -10 32 -23 18z"/>
<path d="M5247 433 c-13 -12 -7 -43 8 -43 9 0 15 9 15 25 0 24 -10 32 -23 18z"/>
<path d="M5960 335 l0 -45 45 0 45 0 0 45 0 45 -45 0 -45 0 0 -45z"/>
<path d="M4890 315 c0 -16 6 -25 15 -25 9 0 15 9 15 25 0 16 -6 25 -15 25 -9
0 -15 -9 -15 -25z"/>
<path d="M4947 333 c-13 -12 -7 -43 8 -43 9 0 15 9 15 25 0 24 -10 32 -23 18z"/>
<path d="M4994 325 c-3 -8 -3 -19 1 -25 11 -18 25 -11 25 15 0 27 -17 34 -26
10z"/>
<path d="M5047 333 c-13 -12 -7 -43 8 -43 9 0 15 9 15 25 0 24 -10 32 -23 18z"/>
<path d="M5097 333 c-13 -12 -7 -43 8 -43 9 0 15 9 15 25 0 24 -10 32 -23 18z"/>
<path d="M5147 333 c-13 -12 -7 -43 8 -43 9 0 15 9 15 25 0 24 -10 32 -23 18z"/>
<path d="M5197 333 c-13 -12 -7 -43 8 -43 9 0 15 9 15 25 0 24 -10 32 -23 18z"/>
<path d="M5247 333 c-13 -12 -7 -43 8 -43 9 0 15 9 15 25 0 24 -10 32 -23 18z"/>
<path d="M5960 220 l0 -50 43 0 c24 0 46 2 48 4 2 3 3 25 1 50 l-4 46 -44 0
-44 0 0 -50z"/>
<path d="M4890 215 c0 -16 6 -25 15 -25 9 0 15 9 15 25 0 16 -6 25 -15 25 -9
0 -15 -9 -15 -25z"/>
<path d="M4944 225 c-3 -8 -3 -19 1 -25 11 -18 25 -11 25 15 0 27 -17 34 -26
10z"/>
<path d="M4994 225 c-3 -8 -3 -19 1 -25 11 -18 25 -11 25 15 0 27 -17 34 -26
10z"/>
<path d="M5044 225 c-3 -8 -3 -19 1 -25 11 -18 25 -11 25 15 0 27 -17 34 -26
10z"/>
<path d="M5092 218 c5 -32 28 -35 28 -4 0 17 -5 26 -16 26 -10 0 -14 -7 -12
-22z"/>
<path d="M5142 218 c5 -32 28 -35 28 -4 0 17 -5 26 -16 26 -10 0 -14 -7 -12
-22z"/>
<path d="M5192 218 c5 -32 28 -35 28 -4 0 17 -5 26 -16 26 -10 0 -14 -7 -12
-22z"/>
<path d="M5240 215 c0 -16 6 -25 15 -25 9 0 15 9 15 25 0 16 -6 25 -15 25 -9
0 -15 -9 -15 -25z"/>
<path d="M2284 3885 c0 -88 2 -123 3 -77 2 46 2 118 0 160 -1 42 -3 5 -3 -83z"/>
<path d="M1519 3720 c-14 -8 -16 -26 -13 -131 4 -115 4 -121 -16 -126 -11 -3
-20 -8 -20 -12 0 -4 -17 -15 -37 -26 -21 -11 -45 -25 -53 -32 -8 -7 -55 -46
-105 -87 -124 -102 -266 -254 -360 -386 -22 -30 -44 -60 -50 -67 -5 -7 -30
-44 -55 -83 l-45 -70 -158 0 c-90 0 -167 -4 -178 -10 -25 -14 -25 -56 0 -70
11 -5 79 -10 151 -10 72 0 130 -3 128 -7 -1 -5 -38 -77 -81 -162 -204 -403
-374 -943 -431 -1371 -35 -262 -35 -641 0 -791 6 -25 4 -26 -58 -36 -75 -13
-138 -47 -138 -75 0 -19 1 -19 31 3 68 48 79 49 766 49 l643 0 0 -54 c0 -44 5
-60 25 -85 14 -16 38 -32 53 -34 15 -2 -321 -5 -745 -6 -673 -1 -773 -3 -773
-16 0 -13 103 -15 792 -17 436 -2 794 -1 795 2 2 3 90 3 195 0 106 -3 194 -2
196 2 2 4 10 4 19 1 13 -5 15 -2 11 14 -4 15 0 23 13 26 15 4 19 0 19 -19 l0
-24 1175 0 1176 0 -7 53 c-8 59 -9 61 -23 52 -6 -3 -11 -22 -11 -41 0 -49 -28
-46 -32 3 -3 33 -7 39 -33 44 -39 8 -17 17 50 22 l50 3 -57 2 -58 2 1 128 c1
96 3 119 10 95 5 -18 12 -33 14 -33 3 0 5 25 5 56 0 47 -3 55 -16 50 -22 -8
-52 30 -60 77 -4 20 -11 37 -16 37 -14 0 -9 -308 5 -314 9 -3 8 -7 -2 -14 -10
-7 -12 -21 -8 -46 6 -41 -9 -49 -22 -12 -12 30 -37 39 -64 24 -12 -7 -26 -11
-31 -10 -5 2 -32 5 -60 7 -28 2 -54 4 -58 4 -5 1 -8 11 -8 23 0 12 -3 19 -6
15 -12 -12 8 -86 24 -90 9 -3 -23 -5 -73 -5 -49 0 -82 2 -72 5 9 2 17 13 17
24 0 10 5 19 10 19 6 0 10 11 10 25 0 14 -4 25 -10 25 -5 0 -10 -9 -10 -20 0
-11 -3 -20 -7 -21 -5 0 -34 -2 -65 -4 -55 -2 -58 -1 -58 21 0 13 -4 24 -10 24
-5 0 -10 -11 -10 -25 0 -14 5 -25 10 -25 6 0 10 -7 10 -15 0 -7 8 -19 18 -24
12 -8 -10 -10 -83 -11 l-100 0 3 352 c2 320 1 354 -14 365 -12 9 -22 9 -35 2
-18 -9 -19 -29 -19 -365 l0 -355 -27 3 c-24 3 -28 8 -31 38 -5 49 -12 53 -63
36 -90 -30 -180 -39 -329 -32 -80 3 -157 9 -172 12 -29 7 -39 24 -13 24 8 0
15 9 15 20 0 19 4 20 68 13 119 -14 311 -9 371 10 72 22 91 22 91 -3 0 -11 5
-20 10 -20 6 0 10 24 10 53 l0 53 -92 -24 c-130 -33 -212 -37 -356 -18 -68 9
-128 16 -133 16 -5 0 -9 5 -9 11 0 9 23 10 83 5 276 -22 283 -21 444 22 l61
16 -2 236 c-1 129 -6 247 -10 263 l-8 27 55 0 56 0 3 42 c4 59 28 63 28 5 0
-27 5 -47 12 -49 7 -3 13 -13 13 -24 0 -15 8 -20 38 -22 36 -3 37 -2 37 31 0
32 -3 35 -35 41 -34 7 -35 9 -35 51 0 24 -4 47 -10 50 -15 9 -12 25 5 25 11 0
15 12 15 45 0 33 4 45 15 45 24 0 17 17 -10 24 -17 4 -25 12 -23 24 2 14 -5
17 -42 16 -25 0 -72 -6 -105 -12 -125 -26 -344 -38 -445 -26 -91 10 -163 34
-185 60 -17 20 -61 25 -75 8 -23 -27 -30 5 -31 151 -2 173 -5 156 -24 -170 -8
-143 -22 -363 -30 -490 -8 -126 -15 -332 -15 -457 l0 -228 -102 1 c-57 1 -92
4 -79 8 37 10 61 51 68 115 l6 57 -74 -3 c-84 -3 -77 9 -63 -115 6 -53 4 -63
-8 -63 -13 0 -16 31 -20 215 -2 118 -7 217 -10 221 -23 22 -28 -20 -28 -222 0
-184 -2 -214 -15 -214 -19 0 -21 99 -4 149 6 18 9 34 7 36 -3 3 -32 8 -65 11
-57 6 -61 5 -68 -15 -17 -56 24 -175 55 -156 5 3 11 1 15 -5 4 -6 -21 -10 -69
-10 -72 0 -76 1 -76 23 -1 12 0 106 0 210 0 123 -3 187 -10 187 -5 0 -10 -6
-10 -12 0 -7 -1 -76 -1 -154 0 -177 -2 -186 -38 -172 -40 17 -366 23 -461 9
-45 -7 -85 -9 -88 -6 -11 11 -11 435 0 435 5 0 7 4 3 9 -3 5 -7 23 -9 40 -2
22 1 31 11 31 8 0 11 -5 8 -11 -4 -6 -4 -26 -1 -45 6 -27 12 -34 31 -34 13 0
26 6 28 13 2 6 3 0 1 -15 -2 -21 0 -26 11 -21 8 3 15 1 15 -5 0 -5 -14 -12
-30 -14 -27 -4 -30 -2 -24 16 6 19 5 19 -15 -3 -20 -23 -21 -35 -21 -193 0
-148 2 -168 14 -155 8 8 17 39 19 68 l3 54 2 -54 c2 -43 5 -52 18 -47 8 3 12
2 9 -4 -10 -16 15 -12 32 5 11 11 14 33 11 90 -3 80 0 85 48 85 13 0 24 -4 24
-10 0 -5 -13 -10 -30 -10 l-30 0 0 -78 c0 -63 3 -79 15 -80 8 -1 33 -2 56 -3
44 -2 35 -18 -11 -20 -14 0 -34 -4 -45 -9 -12 -5 3 -6 40 -3 107 8 105 5 105
160 0 82 -4 133 -10 133 -15 0 -12 48 2 52 7 3 -7 8 -32 12 -50 8 -101 -13
-119 -48 -9 -19 -10 -18 -11 9 0 17 -7 41 -15 55 -16 28 -20 54 -5 30 9 -13
10 -13 10 0 1 9 6 5 15 -10 8 -14 14 -19 15 -12 0 6 8 12 17 12 13 0 12 -5 -8
-26 l-24 -26 28 13 c19 9 27 18 24 30 -7 25 7 41 28 33 18 -7 18 -8 -1 -15
-16 -6 -16 -8 -2 -8 9 -1 20 4 23 9 10 16 55 12 55 -5 0 -8 -9 -15 -20 -15
-11 0 -20 -5 -20 -11 0 -6 10 -9 23 -7 19 3 22 10 25 56 3 47 1 52 -17 52 -14
0 -21 -6 -21 -20 0 -11 -4 -20 -9 -20 -5 0 -7 9 -4 19 4 14 -1 21 -19 24 -12
2 20 4 72 4 52 0 75 -2 52 -4 -34 -3 -42 -8 -38 -19 3 -9 6 -23 6 -33 0 -18
40 -24 52 -7 4 6 12 5 22 -3 11 -9 16 -10 17 -2 1 6 3 16 4 21 1 6 3 15 4 20
0 6 5 10 10 10 5 0 8 -8 6 -17 -1 -10 5 -26 13 -36 16 -18 17 -18 23 0 7 17 8
17 8 0 1 -25 21 -11 21 15 0 14 -5 18 -15 14 -8 -3 -15 -1 -15 4 0 6 7 10 15
10 17 0 34 -36 45 -95 7 -39 8 -38 9 18 0 31 -3 57 -8 57 -5 0 -8 8 -7 17 0
10 -4 18 -11 18 -6 0 -15 4 -20 9 -5 5 2 7 15 3 16 -4 25 0 29 11 4 9 2 17 -5
20 -6 2 -8 10 -5 18 4 10 -2 14 -21 14 -17 0 -26 5 -26 16 0 8 -4 13 -9 9 -21
-12 -18 13 3 38 28 32 36 34 36 7 0 -12 -6 -20 -13 -18 -7 2 -14 -1 -15 -7 -1
-5 8 -11 21 -13 24 -3 24 -2 23 85 l-1 88 -85 2 c-47 1 -109 2 -137 2 l-53 1
0 150 0 150 56 0 c73 0 70 24 -4 28 l-52 3 0 652 c0 359 4 657 8 662 4 6 20
17 36 25 16 8 36 30 44 48 15 31 15 36 -3 70 -11 21 -34 44 -52 52 l-33 15 0
418 0 418 -46 -36 c-26 -19 -51 -35 -55 -35 -5 0 -9 40 -9 89 0 72 -3 90 -16
95 -22 8 -46 7 -65 -4z m104 -209 l57 41 0 -381 0 -381 -70 0 -70 0 0 230 c0
127 -3 230 -7 230 -11 -1 -81 -91 -142 -183 -282 -422 -529 -1277 -596 -2067
-19 -221 -19 -634 0 -650 8 -6 129 -9 329 -8 l316 3 0 -47 0 -48 -604 0 -604
0 -5 23 c-30 120 -39 440 -18 652 19 189 69 461 122 655 91 332 245 723 378
960 28 49 51 92 51 95 0 3 -72 5 -161 5 -124 0 -160 3 -157 13 4 9 50 13 174
15 l169 4 84 128 c99 152 244 325 359 430 88 80 226 182 280 208 l32 16 0 116
c0 64 3 120 8 124 4 4 9 -44 12 -108 l5 -116 58 41z m-113 -534 l0 -193 -45
-32 c-31 -22 -47 -41 -51 -62 l-6 -30 -94 0 c-71 0 -94 3 -94 13 0 45 256 496
283 497 4 0 7 -87 7 -193z m207 -237 c123 -55 54 -155 -107 -155 -52 0 -86 5
-111 18 -115 57 -44 157 111 157 43 0 79 -7 107 -20z m-290 -125 c2 -6 -27 -9
-74 -8 -48 1 -79 6 -81 13 -3 8 19 10 74 8 42 -2 79 -7 81 -13z m81 -67 c3
-16 -9 -18 -137 -18 -78 0 -141 4 -141 8 0 27 29 32 150 30 110 -3 125 -5 128
-20z m172 -648 c0 -611 -1 -651 -17 -657 -34 -12 -63 -46 -63 -75 0 -15 5 -28
10 -28 6 0 10 10 10 22 0 25 27 58 47 58 10 0 13 -32 13 -154 l0 -154 -70 0
-69 0 -1 819 0 819 70 0 70 0 0 -650z m-170 575 c0 -22 -235 -22 -244 0 -5 13
13 15 119 15 104 0 125 -2 125 -15z m0 -81 c0 -20 -172 -20 -189 -1 -6 8 -9
16 -7 18 2 2 47 3 100 1 75 -3 96 -6 96 -18z m-266 1 c4 -12 -3 -15 -34 -15
-29 0 -40 4 -40 15 0 10 10 15 34 15 21 0 36 -6 40 -15z m46 -70 c7 -9 11 -17
9 -18 -2 -1 -39 -1 -81 1 -61 3 -76 6 -71 18 8 20 126 20 143 -1z m218 -2 c-2
-14 -14 -16 -68 -14 -68 3 -80 6 -80 22 0 5 34 9 76 9 65 0 75 -2 72 -17z
m-164 -78 c5 -13 -11 -15 -109 -15 -105 0 -127 5 -108 23 3 4 52 7 109 7 81 0
103 -3 108 -15z m164 3 c-7 -20 -72 -22 -88 -4 -11 14 -6 16 40 16 37 0 50 -4
48 -12z m-120 -70 c7 -7 12 -16 12 -20 0 -4 -67 -8 -150 -8 -118 0 -150 3
-150 13 0 8 3 17 7 20 12 13 268 8 281 -5z m122 -2 c0 -22 -19 -30 -35 -16
-22 18 -18 30 10 30 15 0 25 -6 25 -14z m-70 -81 c11 -13 -12 -15 -174 -15
-154 0 -186 2 -186 14 0 8 4 16 10 18 5 2 84 2 174 0 129 -2 167 -6 176 -17z
m10 -63 c0 -3 -8 -11 -17 -18 -26 -19 -373 -20 -373 -1 0 8 3 17 7 21 7 7 383
5 383 -2z m-90 -87 c-10 -12 -42 -15 -166 -15 -130 0 -154 2 -154 15 0 13 25
15 166 15 147 0 165 -2 154 -15z m150 0 c0 -11 -11 -15 -36 -15 -31 0 -35 2
-24 15 7 8 23 15 36 15 15 0 24 -6 24 -15z m-225 -75 c-16 -18 -31 -20 -135
-20 -64 0 -119 3 -123 6 -3 3 -3 12 0 20 4 11 34 14 141 14 134 0 135 0 117
-20z m220 0 c0 -12 -16 -16 -74 -18 l-75 -3 19 21 c16 17 28 20 74 18 42 -2
56 -7 56 -18z m-295 -66 c0 -21 -42 -33 -116 -34 -85 0 -96 3 -87 26 4 11 28
14 104 14 54 0 99 -3 99 -6z m298 -11 c-3 -16 -18 -18 -116 -21 -61 -1 -112 1
-112 6 0 25 30 32 128 32 93 0 103 -2 100 -17z m-378 -61 c0 -21 -29 -32 -82
-32 -58 0 -68 6 -46 28 13 13 128 17 128 4z m378 -14 c3 -17 -9 -18 -154 -18
l-157 0 18 20 c17 19 29 20 154 18 120 -3 136 -5 139 -20z m-467 -78 c-25 -22
-46 -25 -56 -10 -11 18 6 30 43 30 l37 -1 -24 -19z m467 3 c-3 -16 -22 -18
-197 -21 l-195 -2 19 20 c17 19 30 20 197 20 166 0 179 -1 176 -17z m-561 1
c-3 -3 -12 -4 -19 -1 -8 3 -5 6 6 6 11 1 17 -2 13 -5z m563 -79 c0 -13 -33
-15 -236 -15 -209 0 -235 2 -224 15 19 22 460 22 460 0z m-5 -75 c0 -13 -38
-15 -267 -18 -148 -1 -268 1 -268 6 0 29 28 32 280 30 219 -3 255 -5 255 -18z
m5 -75 c0 -22 -515 -22 -544 0 -18 13 12 15 262 15 244 0 282 -2 282 -15z m-2
-77 c3 -17 -12 -18 -211 -18 -202 0 -215 1 -232 20 l-18 20 229 -2 c209 -3
229 -5 232 -20z m-538 -3 c10 -13 9 -15 -9 -15 -12 0 -21 6 -21 15 0 8 4 15 9
15 5 0 14 -7 21 -15z m94 -74 c17 -19 16 -19 -56 -16 -58 2 -74 6 -76 19 -5
25 109 23 132 -3z m444 2 c-3 -16 -20 -18 -159 -21 -144 -2 -158 -1 -180 17
l-24 20 183 1 c169 0 183 -1 180 -17z m-347 -79 c10 -12 -7 -14 -115 -14 -103
0 -126 3 -126 15 0 26 219 26 241 -1z m349 0 c0 -11 -21 -14 -111 -14 -70 0
-118 5 -132 13 -19 10 -4 13 103 17 69 3 128 4 133 2 4 -2 7 -10 7 -18z m1249
4 c19 -13 19 -17 6 -34 -12 -16 -14 -104 -15 -566 l0 -548 -35 0 -35 0 0 578
c0 318 2 581 5 584 9 9 53 1 74 -14z m776 -28 c3 -5 1 -10 -4 -10 -6 0 -11 5
-11 10 0 6 2 10 4 10 3 0 8 -4 11 -10z m-715 -9 c0 -5 9 -11 21 -14 17 -5 19
-9 10 -26 -7 -11 -9 -32 -5 -45 8 -34 -5 -53 -20 -29 -11 15 -36 98 -36 117 0
3 7 6 15 6 8 0 15 -4 15 -9z m610 -32 c0 -10 -8 -28 -17 -39 -10 -11 -19 -25
-19 -30 -1 -6 -2 -14 -3 -20 0 -5 -14 -10 -30 -10 -17 0 -33 5 -36 10 -3 6
-19 10 -34 10 -26 0 -157 42 -169 55 -13 12 -6 13 173 31 39 3 76 10 84 14 22
12 51 0 51 -21z m-2179 1 c44 -24 14 -30 -155 -30 -168 0 -197 5 -181 30 8 13
310 13 336 0z m254 -10 c0 -20 -99 -26 -132 -9 -41 22 -25 30 55 27 60 -2 77
-6 77 -18z m1395 16 c0 -11 -19 -15 -25 -6 -3 5 1 10 9 10 9 0 16 -2 16 -4z
m-1540 -91 c11 -13 -18 -15 -219 -15 -195 0 -231 2 -231 15 0 17 67 21 287 17
117 -2 154 -6 163 -17z m148 2 c4 -21 -25 -22 -50 -3 -22 16 -17 22 19 20 17
0 29 -7 31 -17z m1987 4 c3 -5 1 -12 -5 -16 -5 -3 -10 -26 -10 -51 0 -40 -2
-44 -25 -44 -23 0 -25 4 -25 44 0 25 -5 48 -10 51 -19 11 1 25 35 25 19 0 36
-4 40 -9z m-2047 -73 c7 -7 12 -16 12 -20 0 -9 -541 -9 -585 1 -21 4 -26 9
-17 15 7 4 19 5 27 2 8 -3 15 -1 15 4 0 15 533 13 548 -2z m-57 -81 c-8 -8
-69 -14 -184 -17 -246 -7 -389 -2 -384 13 2 8 37 13 107 15 58 2 105 4 106 5
1 1 84 1 185 -1 142 -2 179 -6 170 -15z m1453 -309 c3 -49 2 -88 -3 -88 -16 0
-21 61 -20 224 l2 161 7 -105 c5 -58 11 -144 14 -192z m-1347 265 c-3 -5 9 -9
26 -9 18 -1 103 -5 190 -10 86 -5 158 -5 160 -1 1 5 25 7 52 4 39 -3 45 -5 28
-11 -13 -5 -21 -12 -18 -16 3 -5 -4 -11 -15 -15 -11 -3 -20 -11 -20 -16 0 -5
-11 -7 -24 -3 -13 3 -27 1 -30 -5 -4 -7 1 -11 13 -11 14 0 19 -5 15 -15 -5
-13 -9 -13 -22 -3 -14 11 -14 10 -5 -6 12 -21 45 -32 37 -12 -3 7 2 13 11 13
9 0 14 -6 11 -14 -3 -7 -1 -13 3 -13 5 0 11 4 13 10 2 5 13 1 25 -8 22 -16 21
-17 -50 -17 l-72 1 0 36 c0 20 -4 40 -8 44 -4 5 -5 1 -2 -8 4 -9 2 -19 -4 -23
-6 -3 -15 4 -20 17 -10 22 -10 22 -8 -4 1 -15 6 -26 11 -25 5 1 12 -6 14 -15
4 -19 -3 -20 -248 -19 l-95 0 -1 48 c-2 54 12 113 27 113 6 0 8 -3 6 -7z
m-201 -32 c-18 -20 -30 -21 -195 -21 -199 0 -281 7 -281 25 0 8 65 12 247 14
l247 2 -18 -20z m144 -1 c0 -16 -7 -20 -30 -20 -34 0 -38 7 -12 26 25 19 42
17 42 -6z m-244 -79 c-18 -19 -30 -21 -161 -21 -78 0 -145 3 -149 7 -4 4 -15
8 -23 8 -9 0 -18 5 -20 11 -3 8 54 12 184 13 l187 2 -18 -20z m244 -1 c0 -18
-7 -20 -82 -20 -80 0 -81 0 -63 20 14 16 31 20 82 20 56 0 63 -2 63 -20z
m-320 -57 c0 -3 -8 -12 -17 -19 -25 -19 -223 -20 -223 -1 0 8 3 17 7 20 8 8
233 8 233 0z m320 -15 c0 -16 -13 -18 -127 -18 -122 1 -127 1 -107 18 16 14
41 17 127 17 95 0 107 -2 107 -17z m187 -14 c-3 -3 -12 -4 -19 -1 -8 3 -5 6 6
6 11 1 17 -2 13 -5z m260 0 c-3 -3 -12 -4 -19 -1 -8 3 -5 6 6 6 11 1 17 -2 13
-5z m46 -1 c-7 -2 -19 -2 -25 0 -7 3 -2 5 12 5 14 0 19 -2 13 -5z m-373 -22
c0 -6 -4 -13 -10 -16 -5 -3 -10 1 -10 9 0 9 5 16 10 16 6 0 10 -4 10 -9z m45
-1 c3 -5 1 -10 -4 -10 -6 0 -11 5 -11 10 0 6 2 10 4 10 3 0 8 -4 11 -10z m82
-5 c0 -8 -4 -15 -9 -15 -4 0 -8 7 -8 15 0 8 4 15 8 15 5 0 9 -7 9 -15z m-671
-30 c-28 -21 -143 -21 -143 0 0 12 16 15 81 15 73 -1 79 -2 62 -15z m424 -2
c0 -16 -15 -18 -170 -18 -93 0 -170 3 -170 7 0 20 49 27 188 28 138 0 152 -2
152 -17z m190 -2 c0 -5 -7 -11 -15 -15 -15 -5 -20 5 -8 17 9 10 23 9 23 -2z
m-190 -73 c0 -17 -17 -18 -222 -18 -213 0 -222 1 -201 18 20 15 49 17 223 17
184 0 200 -1 200 -17z m-613 -10 c-3 -8 -6 -5 -6 6 -1 11 2 17 5 13 3 -3 4
-12 1 -19z m89 7 c-25 -19 -46 -19 -46 0 0 10 10 15 33 15 30 -1 31 -1 13 -15z
m593 -48 c2 36 12 53 32 53 21 0 22 -1 13 -24 -3 -9 -12 -16 -20 -16 -8 0 -14
-7 -14 -15 0 -9 9 -15 21 -15 19 0 19 -1 4 -16 -12 -12 -19 -13 -30 -4 -11 9
-14 5 -18 -22 -2 -18 -4 1 -4 42 0 60 1 67 7 35 4 -22 8 -30 9 -18z m147 7
c-14 -16 -28 -25 -32 -22 -3 4 7 18 22 32 37 31 43 25 10 -10z m1194 -40 c0
-27 -5 -37 -20 -41 -18 -5 -20 -13 -17 -124 1 -90 -1 -119 -10 -119 -10 0 -13
37 -13 153 0 85 3 157 7 160 3 4 17 7 30 7 20 0 23 -5 23 -36z m-1410 6 c0
-19 -7 -20 -265 -20 -146 0 -265 3 -265 6 0 4 8 13 18 20 13 10 75 13 265 14
240 0 247 -1 247 -20z m160 -18 c0 -15 -2 -15 -10 -2 -13 20 -13 33 0 25 6 -3
10 -14 10 -23z m-44 -41 c0 -12 -6 -17 -18 -13 -14 3 -18 -2 -19 -24 -2 -25
-2 -26 -6 -6 -3 15 3 31 14 42 23 24 29 24 29 1z m-59 -123 c-2 -24 -4 -7 -4
37 0 44 2 63 4 43 2 -21 2 -57 0 -80z m2371 -128 c39 0 42 -2 32 -19 -5 -11
-10 -29 -10 -40 0 -16 -6 -21 -29 -21 -25 0 -30 5 -35 33 -6 31 -8 32 -50 31
-52 -2 -66 -9 -66 -34 0 -11 9 -20 23 -23 16 -3 13 -5 -10 -6 -28 -1 -33 3
-33 22 0 12 -5 29 -10 37 -8 12 -2 16 33 21 23 4 58 5 77 3 19 -2 54 -4 78 -4z
m194 -5 c-1 -5 -19 -9 -38 -9 -37 1 -38 -2 -19 -48 6 -15 2 -18 -19 -18 -20 0
-26 5 -26 23 0 12 -5 29 -10 37 -7 12 -3 16 23 21 45 9 93 6 89 -6z m-1241 -9
c-7 -8 -16 -27 -21 -43 -8 -26 -8 -25 -9 15 -1 36 2 42 20 42 18 0 19 -3 10
-14z m535 -11 c-9 -13 -16 -31 -16 -40 0 -10 -10 -15 -30 -15 -30 0 -40 13
-20 25 6 4 8 15 5 25 -6 19 8 27 54 29 23 1 23 0 7 -24z m144 16 c0 -6 -4 -13
-10 -16 -5 -3 -10 -17 -10 -31 0 -20 -5 -24 -30 -24 -25 0 -30 4 -30 24 0 14
-4 28 -10 31 -23 14 -7 25 40 25 28 0 50 -4 50 -9z m130 -10 c-5 -11 -10 -29
-10 -40 0 -17 -6 -21 -35 -21 -26 0 -33 3 -29 15 4 8 -1 26 -10 40 l-16 25 55
0 c52 0 55 -1 45 -19z m-694 -6 c7 -2 9 -15 7 -29 -4 -21 -11 -26 -34 -26 -20
0 -29 5 -29 17 0 9 -7 24 -16 34 -15 17 -14 18 22 13 22 -3 44 -7 50 -9z m255
-40 c11 4 19 2 19 -4 0 -6 -13 -11 -30 -11 -25 0 -30 4 -30 23 1 20 2 20 11 4
7 -12 17 -16 30 -12z m-1311 -12 c-132 -7 -288 -7 -283 0 2 4 79 6 171 5 92
-1 142 -3 112 -5z m1173 0 c-7 -2 -21 -2 -30 0 -10 3 -4 5 12 5 17 0 24 -2 18
-5z"/>
<path d="M1085 2870 c-49 -65 -120 -167 -157 -227 -77 -121 -236 -438 -294
-583 -141 -358 -249 -784 -284 -1132 -12 -117 -11 -560 1 -573 4 -3 71 -7 150
-7 l144 -1 -4 234 c-9 738 183 1651 480 2278 33 68 58 126 56 127 -2 2 -43
-50 -92 -116z m-69 -174 c-8 -20 -20 -36 -25 -36 -16 0 -13 10 11 46 28 41 34
37 14 -10z m-96 -221 c0 -8 -4 -15 -10 -15 -5 0 -7 7 -4 15 4 8 8 15 10 15 2
0 4 -7 4 -15z m-153 -537 c-3 -8 -6 -5 -6 6 -1 11 2 17 5 13 3 -3 4 -12 1 -19z
m-380 -1440 c-3 -8 -6 -5 -6 6 -1 11 2 17 5 13 3 -3 4 -12 1 -19z m198 2 c14
-6 3 -9 -40 -9 -42 -1 -56 2 -45 9 18 12 58 12 85 0z m-105 -65 c0 -8 -9 -15
-20 -15 -20 0 -26 11 -13 23 12 13 33 7 33 -8z m117 1 c0 -7 -15 -13 -36 -14
-31 -2 -34 0 -20 11 22 17 56 19 56 3z"/>
<path d="M2701 1164 c0 -11 3 -14 6 -6 3 7 2 16 -1 19 -3 4 -6 -2 -5 -13z"/>
<path d="M2703 1065 c0 -22 2 -30 4 -17 2 12 2 30 0 40 -3 9 -5 -1 -4 -23z"/>
<path d="M2704 775 c0 -66 1 -92 3 -57 2 34 2 88 0 120 -2 31 -3 3 -3 -63z"/>
<path d="M2702 490 c0 -19 2 -27 5 -17 2 9 2 25 0 35 -3 9 -5 1 -5 -18z"/>
<path d="M2703 405 c0 -22 2 -30 4 -17 2 12 2 30 0 40 -3 9 -5 -1 -4 -23z"/>
<path d="M2704 275 c0 -50 1 -71 3 -48 2 23 2 64 0 90 -2 26 -3 8 -3 -42z"/>
<path d="M1515 820 c-3 -5 -12 -7 -20 -3 -10 3 -15 -1 -15 -13 0 -15 2 -16 9
-5 7 11 10 10 14 -5 4 -16 5 -17 6 -1 0 9 8 17 16 17 8 0 15 5 15 10 0 13 -17
13 -25 0z"/>
<path d="M1560 808 c-42 -10 -43 -11 -20 -20 13 -5 33 -7 45 -5 14 3 11 5 -10
7 -26 2 -23 4 20 15 59 15 30 17 -35 3z"/>
<path d="M1700 800 c0 -5 5 -10 10 -10 6 0 10 -4 10 -10 0 -5 -13 -10 -30 -10
-19 0 -29 5 -27 13 1 6 -5 12 -13 12 -8 0 -14 -7 -13 -15 2 -13 -5 -15 -35
-13 l-37 4 30 -15 c17 -8 25 -15 18 -15 -6 -1 -9 -10 -5 -23 5 -21 6 -21 13
-2 7 16 8 17 8 2 1 -13 9 -18 29 -17 15 0 21 3 15 6 -27 10 -11 22 35 26 l47
3 -52 2 c-29 1 -53 5 -53 10 0 4 21 6 46 3 25 -2 51 2 57 8 8 8 6 11 -6 11
-20 0 -22 11 -5 28 9 9 6 12 -15 12 -15 0 -27 -4 -27 -10z"/>
<path d="M1781 794 c0 -11 3 -14 6 -6 3 7 2 16 -1 19 -3 4 -6 -2 -5 -13z"/>
<path d="M1813 794 c0 -8 11 -14 24 -14 27 0 23 15 -5 22 -11 3 -19 0 -19 -8z"/>
<path d="M1480 772 c0 -7 5 -12 10 -12 6 0 10 -8 10 -17 0 -15 -2 -16 -10 -3
-8 12 -10 9 -10 -13 0 -17 4 -26 10 -22 6 4 32 7 58 8 26 0 37 2 24 5 -12 2
-21 10 -20 17 2 8 -1 13 -7 12 -5 -1 -9 -8 -9 -14 1 -7 -4 -13 -12 -13 -8 0
-14 9 -14 20 0 11 5 20 10 20 6 0 10 5 10 11 0 8 -4 8 -13 0 -10 -8 -17 -7
-25 1 -9 9 -12 9 -12 0z"/>
<path d="M1728 703 c7 -3 16 -2 19 1 4 3 -2 6 -13 5 -11 0 -14 -3 -6 -6z"/>
<path d="M2531 3494 c0 -11 3 -14 6 -6 3 7 2 16 -1 19 -3 4 -6 -2 -5 -13z"/>
<path d="M2531 3394 c0 -11 3 -14 6 -6 3 7 2 16 -1 19 -3 4 -6 -2 -5 -13z"/>
<path d="M2532 2925 c0 -16 2 -22 5 -12 2 9 2 23 0 30 -3 6 -5 -1 -5 -18z"/>
<path d="M2533 2810 c0 -30 2 -43 4 -27 2 15 2 39 0 55 -2 15 -4 2 -4 -28z"/>
<path d="M4410 2845 c-6 -8 -10 -41 -8 -82 3 -60 5 -68 23 -68 18 0 20 8 23
76 2 60 0 78 -12 82 -8 3 -20 0 -26 -8z"/>
<path d="M4510 2845 c-6 -8 -10 -41 -8 -82 3 -62 5 -68 26 -71 21 -3 22 -1 22
76 0 60 -4 81 -14 85 -8 3 -20 0 -26 -8z"/>
<path d="M2445 2740 c10 -11 20 -20 23 -20 3 0 -3 9 -13 20 -10 11 -20 20 -23
20 -3 0 3 -9 13 -20z"/>
<path d="M2258 2553 c6 -2 18 -2 25 0 6 3 1 5 -13 5 -14 0 -19 -2 -12 -5z"/>
<path d="M2255 2491 c-6 -11 9 -23 19 -14 9 9 7 23 -3 23 -6 0 -12 -4 -16 -9z"/>
<path d="M2372 2489 c2 -6 8 -10 13 -10 5 0 11 4 13 10 2 6 -4 11 -13 11 -9 0
-15 -5 -13 -11z"/>
<path d="M2171 2467 c-6 -16 -11 -78 -11 -138 0 -90 3 -109 15 -109 10 0 15
10 15 31 l0 32 34 -45 c41 -54 80 -81 105 -73 35 11 112 106 126 154 21 73 27
125 17 151 -8 23 -9 22 -16 -15 -16 -85 -72 -155 -124 -155 -32 0 -85 33 -108
68 -10 15 -23 50 -30 77 -11 50 -12 50 -23 22z"/>
<path d="M2701 2464 c0 -11 3 -14 6 -6 3 7 2 16 -1 19 -3 4 -6 -2 -5 -13z"/>
<path d="M2702 2410 c0 -14 2 -19 5 -12 2 6 2 18 0 25 -3 6 -5 1 -5 -13z"/>
<path d="M2283 2384 c-15 -14 -23 -23 -16 -19 7 3 21 0 32 -7 15 -9 25 -9 45
0 14 6 34 9 43 6 12 -4 8 3 -10 20 -35 33 -59 33 -94 0z"/>
<path d="M2532 2360 c0 -19 2 -27 5 -17 2 9 2 25 0 35 -3 9 -5 1 -5 -18z"/>
<path d="M2967 2232 c-19 -20 -23 -37 -7 -27 10 6 33 45 27 45 -2 0 -11 -8
-20 -18z"/>
<path d="M3030 2240 c8 -5 20 -10 25 -10 6 0 3 5 -5 10 -8 5 -19 10 -25 10 -5
0 -3 -5 5 -10z"/>
<path d="M2531 2214 c0 -11 3 -14 6 -6 3 7 2 16 -1 19 -3 4 -6 -2 -5 -13z"/>
<path d="M3222 2185 c0 -16 2 -22 5 -12 2 9 2 23 0 30 -3 6 -5 -1 -5 -18z"/>
<path d="M2701 2184 c0 -11 3 -14 6 -6 3 7 2 16 -1 19 -3 4 -6 -2 -5 -13z"/>
<path d="M2982 2030 c0 -19 2 -27 5 -17 2 9 2 25 0 35 -3 9 -5 1 -5 -18z"/>
<path d="M1764 1575 c0 -137 2 -195 3 -128 2 67 2 179 0 250 -1 70 -3 16 -3
-122z"/>
<path d="M3835 1760 c27 -12 43 -12 25 0 -8 5 -22 9 -30 9 -10 0 -8 -3 5 -9z"/>
<path d="M3930 1760 c-9 -6 -10 -10 -3 -10 6 0 15 5 18 10 8 12 4 12 -15 0z"/>
<path d="M3331 1746 c-14 -16 -4 -46 15 -46 16 0 45 40 38 52 -8 13 -40 9 -53
-6z"/>
<path d="M3820 1725 c0 -10 7 -15 18 -13 21 4 19 22 -2 26 -10 2 -16 -3 -16
-13z"/>
<path d="M3932 1731 c-10 -6 -10 -10 1 -20 12 -9 16 -8 20 3 7 19 -4 27 -21
17z"/>
<path d="M2672 1700 c0 -19 2 -27 5 -17 2 9 2 25 0 35 -3 9 -5 1 -5 -18z"/>
<path d="M1939 1475 c-4 -151 -2 -222 5 -227 15 -10 18 91 8 287 l-8 160 -5
-220z"/>
<path d="M3338 1658 c-2 -7 -3 -53 -3 -103 0 -80 2 -90 18 -90 16 0 18 12 20
100 2 85 0 100 -14 103 -9 2 -18 -3 -21 -10z"/>
<path d="M2781 1604 c0 -11 3 -14 6 -6 3 7 2 16 -1 19 -3 4 -6 -2 -5 -13z"/>
<path d="M4434 1509 c-3 -5 6 -9 20 -9 31 0 34 6 6 13 -11 3 -23 1 -26 -4z"/>
<path d="M4555 1509 c-16 -6 -14 -8 13 -8 33 -1 41 4 20 12 -7 2 -22 1 -33 -4z"/>
<path d="M3489 1485 c-3 -25 4 -58 17 -83 7 -15 14 -34 14 -42 0 -8 12 -23 28
-32 15 -10 35 -23 44 -30 21 -15 28 -9 38 36 6 28 5 36 -6 36 -8 0 -14 5 -14
11 0 6 9 9 20 6 13 -3 20 0 20 10 0 11 -13 14 -57 13 -84 -2 -83 -3 -83 28 0
26 -18 67 -21 47z"/>
<path d="M4440 1465 c0 -8 7 -15 15 -15 8 0 15 7 15 15 0 8 -7 15 -15 15 -8 0
-15 -7 -15 -15z"/>
<path d="M4546 1472 c-2 -4 -1 -14 4 -22 7 -11 12 -12 21 -3 6 6 8 16 5 22 -8
13 -23 14 -30 3z"/>
<path d="M3450 1410 c-8 -5 -11 -12 -7 -16 4 -4 13 -2 19 4 15 15 7 24 -12 12z"/>
<path d="M4140 1373 l18 -48 147 -3 146 -3 -25 38 c-15 21 -26 43 -26 50 0 10
-33 13 -139 13 l-139 0 18 -47z"/>
<path d="M4171 1228 c-1 -17 8 -34 24 -46 22 -17 25 -28 25 -78 0 -38 -3 -54
-9 -45 -5 8 -14 10 -22 5 -17 -10 -49 -13 -49 -4 0 3 6 12 13 20 6 8 0 4 -14
-8 -23 -20 -27 -21 -39 -7 -7 8 -18 15 -24 14 -8 0 -8 -2 0 -5 7 -3 10 -22 6
-51 l-5 -46 34 6 c19 4 46 10 62 13 l27 6 0 -123 c0 -71 4 -118 9 -109 4 8 14
88 21 178 7 89 17 162 22 162 4 0 8 6 8 13 0 7 9 29 19 50 l19 37 -44 0 c-24
0 -44 5 -44 10 0 6 -6 10 -14 10 -8 0 -17 6 -19 13 -3 6 -6 0 -6 -15z"/>
<path d="M3586 1034 c-3 -9 -6 -32 -6 -51 0 -34 1 -35 34 -31 19 2 32 0 30 -4
-3 -4 11 -8 30 -8 22 0 36 5 37 13 1 6 3 24 5 39 3 28 -8 41 -37 43 -10 1 -15
-4 -12 -12 7 -19 -7 -16 -23 5 -13 16 -15 16 -28 0 -18 -24 -29 -23 -21 2 7
24 0 27 -9 4z m54 -14 c0 -5 -4 -10 -10 -10 -5 0 -10 5 -10 10 0 6 5 10 10 10
6 0 10 -4 10 -10z m60 0 c0 -5 -5 -10 -11 -10 -5 0 -7 5 -4 10 3 6 8 10 11 10
2 0 4 -4 4 -10z"/>
<path d="M3594 815 c-7 -18 3 -35 22 -35 8 0 14 10 14 25 0 27 -27 35 -36 10z"/>
<path d="M3610 760 c0 -5 5 -10 10 -10 6 0 10 5 10 10 0 6 -4 10 -10 10 -5 0
-10 -4 -10 -10z"/>
<path d="M3594 716 c-7 -19 3 -36 22 -36 10 0 14 8 12 22 -4 26 -26 36 -34 14z"/>
<path d="M3650 704 c0 -15 5 -24 12 -22 17 6 18 36 2 42 -10 4 -14 -2 -14 -20z"/>
<path d="M3592 608 c2 -13 10 -23 18 -23 8 0 16 10 18 23 3 17 -2 22 -18 22
-16 0 -21 -5 -18 -22z"/>
<path d="M3650 605 c0 -14 5 -25 10 -25 6 0 10 7 10 16 0 8 5 12 10 9 6 -4 8
-11 4 -16 -3 -6 3 -5 15 3 12 7 21 17 21 22 0 4 -6 3 -14 -3 -10 -9 -16 -8
-26 4 -18 22 -30 18 -30 -10z"/>
<path d="M3722 600 c-12 -10 -22 -23 -22 -30 0 -6 -5 -8 -10 -5 -6 4 -10 3 -9
-2 4 -21 -2 -33 -16 -33 -9 0 -15 -9 -15 -25 0 -15 6 -25 14 -25 9 0 12 -7 9
-20 -3 -11 -9 -20 -14 -20 -5 0 -9 -11 -9 -25 0 -14 5 -25 10 -25 6 0 10 9 10
21 0 17 4 19 23 13 69 -22 337 -29 409 -11 39 10 39 10 36 56 -3 42 -5 46 -28
46 -14 0 -31 -4 -39 -10 -11 -8 -12 -5 -6 15 l7 25 -20 -23 c-14 -16 -22 -19
-25 -10 -4 10 -7 10 -15 -1 -5 -7 -28 -14 -50 -15 -38 -2 -39 -1 -29 21 13 30
30 30 22 1 -5 -19 -4 -20 5 -8 9 12 13 12 17 2 3 -9 10 -7 24 9 10 12 19 26
19 31 0 4 5 8 11 8 6 0 8 -9 3 -22 -6 -21 -6 -21 11 -4 15 14 16 19 5 26 -11
7 -11 11 -1 24 21 25 2 19 -20 -6 l-20 -23 6 25 c4 17 3 21 -3 11 -7 -9 -12
-10 -16 -2 -4 6 -12 11 -17 11 -5 0 -1 -10 10 -21 16 -17 17 -25 8 -40 -6 -10
-15 -15 -20 -12 -5 3 -4 9 3 13 10 6 8 14 -6 34 -11 14 -23 26 -28 26 -5 0 0
-10 12 -23 12 -13 19 -26 16 -30 -4 -4 -17 5 -30 20 -17 19 -33 27 -59 28 -20
0 -39 -3 -41 -7 -3 -5 -10 -6 -15 -3 -5 3 -6 0 -3 -8 3 -8 -2 -20 -11 -27 -12
-10 -15 -10 -15 0 0 9 -3 10 -14 1 -18 -15 -37 8 -30 36 8 29 -7 35 -34 13z
m23 -37 c-3 -35 -1 -44 6 -33 9 12 11 13 16 1 4 -11 7 -11 14 0 4 7 11 10 14
7 13 -12 -7 -29 -26 -23 -12 4 -19 2 -19 -7 0 -11 -2 -11 -9 0 -4 7 -12 12
-17 11 -40 -7 -44 12 -9 46 13 14 22 25 19 25 -3 0 -2 5 1 10 12 19 15 10 10
-37z m165 -17 c0 -6 -5 -5 -12 2 -8 8 -15 9 -25 1 -10 -9 -13 -8 -13 2 0 8
-14 -2 -30 -21 -16 -19 -30 -30 -30 -24 0 6 9 21 19 33 11 13 22 28 25 34 5 9
8 9 12 0 8 -19 24 -16 24 4 0 15 2 14 15 -3 8 -10 15 -23 15 -28z m24 18 c8
-20 9 -18 -12 -41 -15 -18 -19 -19 -31 -6 -7 8 -10 17 -6 21 3 3 9 1 13 -5 5
-8 11 -7 19 3 8 8 9 15 3 19 -12 8 -13 25 -1 25 5 0 12 -7 15 -16z m-57 -51
c13 -19 12 -20 -13 -17 -29 3 -41 11 -30 21 4 4 11 1 16 -7 6 -8 10 -10 10 -4
0 5 -6 16 -12 23 -11 11 -10 13 1 9 8 -2 20 -13 28 -25z"/>
<path d="M3717 553 c-4 -3 -7 -13 -7 -22 1 -13 3 -13 11 2 11 19 8 33 -4 20z"/>
<path d="M4120 611 c0 -4 -11 -7 -25 -6 -14 2 -25 0 -25 -5 0 -5 -2 -15 -5
-22 -7 -18 31 -63 40 -48 3 6 10 8 14 6 4 -3 9 15 9 39 1 25 0 45 -3 45 -3 0
-5 -4 -5 -9z m-3 -27 c3 -8 -2 -23 -11 -32 -16 -16 -17 -15 -12 13 4 17 3 24
0 18 -3 -7 -10 -13 -16 -13 -6 0 -6 6 2 15 16 19 29 19 37 -1z"/>
<path d="M3787 588 c9 -10 17 -18 17 -18 1 0 2 8 2 18 0 10 -8 18 -18 18 -16
0 -16 -2 -1 -18z"/>
<path d="M1480 550 c0 -5 5 -10 11 -10 5 0 7 5 4 10 -3 6 -8 10 -11 10 -2 0
-4 -4 -4 -10z"/>
<path d="M1810 551 c0 -5 -9 -11 -20 -14 -28 -7 -30 -103 -2 -111 23 -8 130
45 125 61 -2 6 10 14 26 18 17 4 31 10 31 14 0 4 -22 1 -50 -8 -39 -12 -47
-18 -38 -28 8 -10 6 -13 -6 -13 -9 0 -16 -4 -16 -10 0 -5 -5 -10 -11 -10 -6 0
-9 7 -5 15 3 8 1 15 -4 15 -5 0 -11 -10 -14 -22 -3 -13 -3 5 -1 40 3 37 1 62
-5 62 -6 0 -10 -4 -10 -9z m-13 -93 c-2 -13 -4 -3 -4 22 0 25 2 35 4 23 2 -13
2 -33 0 -45z"/>
<path d="M1910 533 c-13 -15 -12 -16 4 -10 10 4 20 7 22 7 2 0 4 5 4 10 0 15
-13 12 -30 -7z"/>
<path d="M1840 525 c-17 -21 -7 -29 25 -21 22 6 25 9 15 21 -16 19 -24 19 -40
0z"/>
<path d="M3592 508 c2 -13 10 -23 18 -23 8 0 16 10 18 23 3 17 -2 22 -18 22
-16 0 -21 -5 -18 -22z"/>
<path d="M1950 490 c0 -5 7 -7 15 -4 8 4 15 8 15 10 0 2 -7 4 -15 4 -8 0 -15
-4 -15 -10z"/>
<path d="M1971 458 c-18 -5 -31 -12 -28 -15 3 -3 20 0 38 6 18 6 34 9 37 6 2
-2 -1 -26 -7 -52 -13 -52 -5 -213 10 -213 5 0 9 27 9 59 0 33 5 63 10 66 6 3
10 15 10 26 0 10 -4 19 -10 19 -5 0 -10 20 -10 45 0 28 5 45 12 45 17 0 0 14
-20 16 -9 1 -32 -3 -51 -8z m46 -160 c-2 -13 -4 -3 -4 22 0 25 2 35 4 23 2
-13 2 -33 0 -45z"/>
<path d="M2532 435 c0 -16 2 -22 5 -12 2 9 2 23 0 30 -3 6 -5 -1 -5 -18z"/>
<path d="M1870 419 c-19 -10 -29 -19 -22 -19 6 0 12 -5 12 -11 0 -7 -11 -9
-27 -5 -16 3 -22 3 -15 0 18 -8 5 -24 -21 -25 -12 0 -16 -3 -9 -6 6 -2 12 -20
12 -39 0 -24 5 -34 15 -34 12 0 15 -13 15 -55 0 -53 1 -55 28 -56 15 -1 42 -3
60 -5 17 -1 32 2 32 8 0 6 -13 7 -32 3 -24 -5 -29 -3 -18 4 11 8 5 9 -25 6
l-40 -5 40 14 40 13 -1 92 c0 64 3 88 10 81 6 -6 10 -45 10 -88 l-1 -77 7 70
7 70 -1 -83 c-1 -73 1 -82 17 -82 16 0 17 9 15 85 -2 47 -6 84 -9 83 -10 -5
-39 24 -34 33 3 4 13 6 23 4 12 -2 18 3 19 16 2 22 -32 27 -40 6 -2 -7 -19
-14 -37 -15 -19 -1 -29 1 -25 8 3 5 12 10 20 10 8 0 17 5 20 10 9 15 -6 11
-45 -11z m27 -45 c-3 -3 -12 -4 -19 -1 -8 3 -5 6 6 6 11 1 17 -2 13 -5z m-37
-84 c0 -90 -14 -107 -24 -27 -10 83 -8 107 9 107 12 0 15 -16 15 -80z"/>
<path d="M3597 434 c-16 -16 -7 -44 14 -44 15 0 20 5 17 22 -3 22 -19 33 -31
22z"/>
<path d="M1770 409 c0 -5 5 -7 10 -4 6 3 10 8 10 11 0 2 -4 4 -10 4 -5 0 -10
-5 -10 -11z"/>
<path d="M3597 334 c-16 -16 -7 -44 14 -44 15 0 20 5 17 22 -3 22 -19 33 -31
22z"/>
<path d="M3650 315 c0 -14 5 -25 10 -25 6 0 10 11 10 25 0 14 -4 25 -10 25 -5
0 -10 -11 -10 -25z"/>
<path d="M3700 305 c0 -8 5 -15 10 -15 6 0 10 7 10 15 0 8 -4 15 -10 15 -5 0
-10 -7 -10 -15z"/>
<path d="M2043 245 c0 -22 2 -30 4 -17 2 12 2 30 0 40 -3 9 -5 -1 -4 -23z"/>
<path d="M4094 243 c10 -10 56 -11 56 -1 0 4 -14 8 -32 8 -17 0 -28 -3 -24 -7z"/>
<path d="M4292 220 c0 -19 2 -27 5 -17 2 9 2 25 0 35 -3 9 -5 1 -5 -18z"/>
<path d="M3593 224 c-7 -18 11 -39 26 -30 17 11 13 46 -4 46 -9 0 -18 -7 -22
-16z"/>
<path d="M3650 215 c0 -14 5 -25 10 -25 6 0 10 11 10 25 0 14 -4 25 -10 25 -5
0 -10 -11 -10 -25z"/>
<path d="M3898 228 c-6 -17 1 -38 13 -38 5 0 9 11 9 25 0 26 -14 34 -22 13z"/>
<path d="M1770 185 c0 -15 4 -24 10 -20 6 3 10 12 10 20 0 8 -4 17 -10 20 -6
4 -10 -5 -10 -20z"/>
<path d="M1510 180 c-9 -6 -10 -10 -3 -10 6 0 15 5 18 10 8 12 4 12 -15 0z"/>
<path d="M1800 174 c0 -8 5 -12 10 -9 6 4 8 11 5 16 -9 14 -15 11 -15 -7z"/>
<path d="M1984 173 c15 -4 16 -7 5 -14 -9 -6 -1 -8 26 -7 23 0 30 3 18 5 -13
2 -23 9 -23 14 0 5 -10 8 -22 8 -20 -1 -20 -2 -4 -6z"/>
<path d="M1484 152 c5 -8 76 -4 76 4 0 2 -18 4 -41 4 -22 0 -38 -4 -35 -8z"/>
<path d="M4497 113 c-3 -5 -8 -29 -12 -55 l-7 -48 41 0 c30 0 41 4 41 15 0 8
-9 15 -20 15 -16 0 -20 7 -20 34 0 33 -13 55 -23 39z"/>
</g>
</svg>
